<svg id="Layer_1" data-name="Layer 1" xmlns="http://www.w3.org/2000/svg" viewBox="0 0 210 373.89">
  <path d="M31.78,328C44.68,345.43,62.09,355,83.7,355.17c5.74,0,12.38-3.87,17.1-7.79,12.41-10.32,21.28-23.31,24.86-39.45,1.61-7.29,3.85-14.47,5.19-21.81,4.35-23.87-2.16-45.53-14.4-65.75-3.93-6.51-9.06-12.29-13.2-18.68-1.56-2.41-3.22-6.09-2.42-8.31s4.51-3.95,7.23-4.47c13.48-2.61,14.58-4.09,12.13-17.56a118.56,118.56,0,0,1-1.65-14.45c-.28-4.64-.06-9.31-.06-13L90.6,145.42c.26,3.69.92,8.48.87,13.26-.09,7.3-.49,14.6-1.09,21.87-.35,4.35-.06,7.66,5.43,7.95,1.28.07,2.49,1.31,3.73,2-.17.73-.35,1.46-.52,2.19-3.11-.36-6.73.18-9.24-1.25-7.18-4.06-14.3-3.6-21.68-1.32C51.72,195.2,38.15,204,29.94,219.59c-1.75,3.32-3.68,4.26-7.58,2.54,4.67-9.89,11.06-18.41,20-24.59,11-7.59,22.94-13,36.62-13.76,1.46-.08,3.87-1.59,4.09-2.76,2.34-12.64,4.48-25.36.13-38.1-7.5-1.19-17.23,2.14-18.6-10.18-12.69-.14-23.68-3.64-28.67-16.56-4.53-11.71,1.81-20.34,9.58-28.59-6-3.39-10.62-8-11.87-14.56-1-5.48-1.75-11.62-.32-16.86C38.11,38.49,51.89,34.93,68,36.47,70.29,15.88,77.16,8.4,95.29,6.31c13.39-1.55,21.69,4,26.8,18.35,13.38-9,26.4-9.33,37.78,3,8.89,9.66,5.67,19.85-.71,30,8.55,1.77,15.3,6.14,19.26,13.32a27.37,27.37,0,0,1,3.41,14.36c-1.26,17.77-6.3,21.7-22.84,26.65,5,8.11-.27,13.77-4.89,19.29-7.76,9.28-15,10.74-28.73,6-.42,4.23-1.17,8.3-1.15,12.36q.06,12,.85,24a15.48,15.48,0,0,0,8.7,13.37c3.39,1.76,6.71,3.68,10.17,5.3,9.24,4.31,16.73,10.51,21.94,19.39a5.89,5.89,0,0,0,3.35,2.76c10.77,1.9,16.63,9.21,19.79,18.7,4.51,13.5,5.15,27.61,5.09,41.77a11,11,0,0,0,2,6.42,29.92,29.92,0,0,1,6.09,24.06c-1.69,10.65-11.77,17.6-23.17,16.16-1.71-.21-3.4-.66-5.76-1.13-4.26,11.37-14.68,16.81-23.55,24-13.1,10.6-27.7,16.26-44.58,16.5-23.49.33-45.72-3.78-65.37-17.55-14.33-10.05-21.48-24.58-25.69-41.14,3.35-1.91,4.4-.57,5.79,2.41,3.71,7.95,8,15.63,12.08,23.42Zm118.16-218c6.2-2.28,12.44-3.82,17.92-6.76,6.3-3.39,8.86-9.66,8.61-16.76a29.72,29.72,0,0,0-7.16-18.1c-4.41-5.35-10.23-7.84-17.67-8,1.57-2.34,2.74-4,3.85-5.75,5.37-8.41,4.28-18.68-2.67-25.29-6.74-6.42-16.88-7.06-25-1.58-1.3.88-2.5,1.9-3.86,2.66-4.24,2.35-6.41,1.24-7.37-3.5-.51-2.5-.56-5.58-2.06-7.32-5.7-6.62-13.38-8.37-21.77-7.11C84.91,13.62,78.31,17,76,25.2c-1.22,4.27-1.36,8.87-1.82,13.35-.35,3.52-1.42,4.71-5.38,3.65-9.17-2.44-18-.71-24.51,6.28-6.66,7.15-7.65,16.19-4.71,25.41,2,6.18,6.35,9.8,13,10.41,1.44.13,2.85.54,5.9,1.15-2.5,1.47-3.53,2.23-4.66,2.72-10.7,4.67-16,16.27-12.43,27.05,3.31,9.88,14.93,15.33,26.15,12.31,1.84-.5,3.75-.75,4.88-1-.31,3.52-1.83,7.48-.51,9.06,1.72,2,5.69,2.16,9,3.22-.38-3.94-.6-6.31-.83-8.68l1.48-.7c.79,1.1,1.52,2.26,2.38,3.3,10.87,13.06,32.26,11.29,40.8-3.24,1-1.73,3-2.9,4.53-4.33.24,2.34.48,4.67.71,7,0,.49,0,1,0,1.43,7.28,3,14.4,1.41,19.4-4.28C155.09,122.85,155.2,118.57,149.94,109.9Zm20.17,113.32c10.37,30.4,14.09,60.17,5.57,90.35,7,2.83,13.52,1.16,17.86-4.12s4.85-14.43.56-20.46c-1.31-1.83-3.83-2.8-6.42-4.61,0-2.06-.14-5.52,0-9,.59-12.22.15-24.34-3.49-36.12C182.11,232.51,178.86,226.46,170.11,223.22Z"/>
  <path d="M31.94,328.12c1.76-3.85,2.87-8.21,5.42-11.45a190.79,190.79,0,0,1,20.21-21.8c-6.79,3.62-14,8.16-22.44,8.39l-.66-1.35,21.78-15.2C39.77,293.09,24,303,4.87,296.84c9.28-6,20.39-6.5,31.28-10.25L24,284.32c1.34-4.88,4.8-4.28,7.69-4.71,6.5-1,13-1.84,19.49-3.06,1.42-.27,2.6-1.83,3.57-3.23-6.21,1.73-41.33-8.79-46.64-15.25,3.29,0,5.67-.34,7.93.05,11,1.93,21.86,4.09,32.8,6.09a9.58,9.58,0,0,0,5.78-.59c-4.87-2.08-9.75-4.15-14.61-6.25-2.06-.9-4.32-1.58-6.08-2.91-1.52-1.15-2.44-3.08-3.63-4.66l4.6-3.06-11.06-9,5.71-2.5c-1.44-1.29-3.16-2.32-4.13-3.83s-1.08-3.4-1.58-5.12c1.64-.13,3.45-.8,4.87-.3,6.55,2.3,13.3,4.33,19.38,7.58,6.54,3.49,12.42,8.22,19.16,12.8,3.2-1.53,6.27.43,9,3.45C91,266,86.83,293.08,67.87,304.11c-1.83,1.06-4.33,1-8,1.73C53.56,311.51,46,318.43,38.2,325.08c-1.71,1.46-4.26,1.93-6.43,2.86Z"/>
<path d="M106.17,161.8c.63-3.61,1.14-7.71,2.17-11.68.31-1.16,2.15-2.69,3.25-2.65a4.34,4.34,0,0,1,3.12,2.82,196.67,196.67,0,0,1,2.83,23c.08,2-3.2,4.15-4.93,6.24-1.58-1.8-3.92-3.36-4.56-5.44C106.91,170.36,106.8,166.3,106.17,161.8Z"/>
<path d="M18.68,228c4.59,2.73,5.41,5.46,3.74,9.56a79.4,79.4,0,0,0-4.15,13.93c-.84,4.14-3,5-7.84,3.77C13.19,246.12,15.89,237.2,18.68,228Z"/>
<path d="M10.66,288.9V265.21c3.2-.24,4.82.88,4.64,4.68-.24,5.16.26,10.36,0,15.53-.07,1.46-1.65,2.85-2.54,4.27Z"/>
<path d="M58.9,46.19c7.6.1,11.43,2.93,12.87,7.77s-.24,10.3-4,13.06c-3.54,2.57-7.18,1.56-8.42-3s-3.13-7.52-8.55-6.62c-1,.17-3-1-3.16-1.89-.3-1.25.15-3.53,1-4.07C52.55,49.13,56.74,47.26,58.9,46.19Z"/>
<path d="M155.14,44.83l-4.06,6.71c-2.15-1.45-5.16-2.43-6.26-4.45a11.7,11.7,0,0,0-8.63-6.56c-1.82-.39-4.25-3.07-4.38-4.85a8.4,8.4,0,0,1,3.13-6.34,11.25,11.25,0,0,1,15.87,3.72C152.7,36.47,153.57,40.44,155.14,44.83Z"/>
<path d="M124.59,110.62c1.26-2.54,2-4.17,2.87-5.76C132,96.29,130.11,86.1,123,80.34c-6.75-5.42-15.22-4.65-23.14,2.08a9.34,9.34,0,0,1-2.46,1.86,13.77,13.77,0,0,1-3.37.38A12.94,12.94,0,0,1,94,80.87,8.16,8.16,0,0,1,96.19,78c10.32-10.52,30.22-7.15,35.19,6.6,2.14,5.92,2.07,12.87,1.86,19.31C133.1,108.39,130.82,109.6,124.59,110.62Z"/>
<path d="M172.71,87.43c-.61,7-2.64,10.39-7.49,11.38s-7.91-2-6.9-6.81a35.31,35.31,0,0,1,2.11-5.85c1.64-4.06,1.64-7.65-2.18-10.71-1-.77-1.9-3.22-1.45-3.77.9-1.12,3.23-2.41,4.14-2,3.07,1.54,6.73,3.23,8.39,6C171.38,79,171.67,83.45,172.71,87.43Z"/>
<path d="M112.77,77.9c3.6,2,7.7,3.55,10.68,6.28s2.7,6.8,0,9.88-6.16,3.52-9.88,1.56c-3.45-1.81-7.17-3.2-10.32-5.42-1.25-.88-2.29-3.91-1.72-5.21C103.43,80.62,107.39,78.93,112.77,77.9Z"/>
<path d="M97.49,13.26c4.31,2.12,7.81,3.44,10.77,5.52,1.07.76,1.57,3.72,1,5s-3.27,2.66-4.5,2.28c-6.28-1.95-11.77-.72-17.37,2.37-1.45.8-5.33.1-5.86-1-.82-1.7-.52-5.56.69-6.34C86.94,18.07,92.24,15.86,97.49,13.26Z"/>
<path d="M120.14,34.82c.67,12-12.69,22.78-24,18.07,2.35-1.1,4-2.25,5.73-2.61,5.8-1.19,9.42-4.46,11.6-10,1-2.52,3.32-4.51,5-6.74Z"/>
<path d="M140.42,70.91c1.38,8-4.93,16.42,2.8,23.41-5.27,2-6.93-.58-8.17-3.85C132.19,82.88,134.36,74.11,140.42,70.91Z"/>
<path d="M104,117c-2.07-.25-5.1.28-6.06-.88a128.64,128.64,0,0,1-10-14.69c-.54-.89.56-2.76.9-4.18,1.36.76,2.75,1.47,4.06,2.32a2.39,2.39,0,0,1,.74,1.34c1.57,6.22,4,11.78,11.3,13.8Z"/>
<path d="M76.06,96.52c6.2,4.61,6.87,14.73,3,22.65-1.27,2.63-2.87,4.36-6.86,2C78.56,114.3,75.9,105.71,76.06,96.52Z"/>
<path d="M146,112.43c1.53,2.1,4.48,4.41,4.21,6.25-.32,2.22-3.38,4-5.25,6a20.1,20.1,0,0,1-2.17-3,6.68,6.68,0,0,1-.84-3.43,37.84,37.84,0,0,1,1.43-5.46Z"/>
<path d="M95,53.43C88.68,56,83.55,54.56,79.9,49.6,83.4,47.43,90.42,49.09,95,53.43Z"/>
<path d="M76.85,68.37c1.37,6.6-1.62,11.82-5.94,12-.81,0-2.59-2.51-2.46-2.66C70.87,74.79,73.51,72,76.85,68.37Z"/>
<path d="M65.19,90c4.13-3.11,9.78-2,11.26,1.59.33.82,0,1.91,0,2.88-1.26-.06-2.66.21-3.74-.27s-2-1.89-3.1-2.58A27,27,0,0,0,65.19,90Z"/>
<path d="M106.86,116.9h9.53c-3.12,3.85-6.3,4-9.51,1.7Z"/>
<path d="M148.25,105.3c-1.65-.61-3.52-.94-4.88-2-.91-.68-1.09-2.34-1.6-3.57,1.23,0,2.74-.32,3.62.25,1.46,1,2.52,2.52,3.74,3.82Z"/>
<path d="M195.31,299c-.7,1-1.43,3.24-2.73,3.64-1,.31-2.79-1.53-4.11-2.56a5.67,5.67,0,0,1-1.53-2.05c-.79-1.72-2.07-3.59-1.88-5.24.12-1,2.88-2.68,4-2.38,1.88.52,3.62,2.18,5,3.74C194.82,295,194.76,296.71,195.31,299Z"/></svg>
